<?xml version="1.0" standalone="no"?><!DOCTYPE svg PUBLIC "-//W3C//DTD SVG 1.1//EN" "http://www.w3.org/Graphics/SVG/1.1/DTD/svg11.dtd"><svg class="icon" width="200px" height="200.00px" viewBox="0 0 1024 1024" version="1.1" xmlns="http://www.w3.org/2000/svg"><path fill="#000000" d="M386.108235 459.053176a423.875765 423.875765 0 0 0 158.72 158.72l35.538824-49.694117a40.176941 40.176941 0 0 1 51.922823-11.926588 458.691765 458.691765 0 0 0 184.079059 54.814117 40.176941 40.176941 0 0 1 36.984471 39.996236v179.2a40.116706 40.116706 0 0 1-36.080941 39.936c-21.263059 2.228706-42.767059 3.312941-64.331295 3.312941-343.762824 0-622.411294-278.708706-622.411294-622.411294 0-21.624471 1.084235-43.068235 3.252706-64.331295a40.176941 40.176941 0 0 1 39.996236-36.080941h179.139764a40.176941 40.176941 0 0 1 40.056471 36.984471 458.691765 458.691765 0 0 0 54.814117 184.018823 40.176941 40.176941 0 0 1-11.926588 51.983059l-49.694117 35.538824z m-101.195294-26.383058l76.257883-54.452706a538.503529 538.503529 0 0 1-44.032-147.33553H211.245176a542.057412 542.057412 0 0 0 561.814589 561.814589v-105.893647a538.684235 538.684235 0 0 1-147.33553-44.032l-54.512941 76.257882a499.410824 499.410824 0 0 1-63.728941-30.117647l-2.349177-1.325177a504.169412 504.169412 0 0 1-188.837647-188.777411l-1.325176-2.349177a499.651765 499.651765 0 0 1-30.117647-63.789176z"  /></svg>